<?xml version="1.0" encoding="UTF-8" standalone="no"?>
<!DOCTYPE svg PUBLIC "-//W3C//DTD SVG 1.1//EN" "http://www.w3.org/Graphics/SVG/1.1/DTD/svg11.dtd">
<svg width="100%" height="100%" viewBox="0 0 1014 207" version="1.1" xmlns="http://www.w3.org/2000/svg" xmlns:xlink="http://www.w3.org/1999/xlink" xml:space="preserve" xmlns:serif="http://www.serif.com/" style="fill-rule:evenodd;clip-rule:evenodd;stroke-linejoin:round;stroke-miterlimit:2;">
    <g transform="matrix(1,0,0,1,-27373.4,-1683)">
        <g>
            <g transform="matrix(0.0975658,0,0,0.0849524,27314.3,1597.61)">
                <path d="M1829.03,1240.67L1490.37,1240.67C1146.81,1240.67 975.033,1376.31 975.033,1647.59C975.033,1679.72 979.048,1719.43 987.08,1766.72L708.661,1896.56C746.141,1634.21 859.918,1426.29 1049.99,1272.8C1240.07,1119.31 1479.22,1042.57 1767.45,1042.57L2251.28,1042.57L2053.32,1240.52L1829.03,1240.67Z" style="fill:rgb(77,183,205);"/>
            </g>
            <g transform="matrix(0.0849524,0,0,0.0849524,27323.2,1606.75)">
                <path d="M2053.17,1240.67L1829.03,1240.67L2053.32,1240.52L2053.17,1240.67Z" style="fill:rgb(5,48,58);"/>
            </g>
            <g transform="matrix(0.204269,0,0,0.204269,26613.5,803.719)">
                <path d="M4102.45,4713.23C4113.19,4716.39 4123.68,4720.13 4133.86,4724.41C4000.33,4724.41 3891.51,4826.73 3887.89,4954.08C3887.83,4956.26 3887.8,4958.44 3887.8,4960.63C3887.8,5032.52 3921.32,5096.95 3974.17,5140.29C3999.49,5153.54 4026.07,5163.86 4053.62,5170.89C4078.78,5179.23 4105.77,5183.76 4133.86,5183.76C3949.3,5183.76 3792.04,5065.91 3733.3,4901.43C3737.51,4888.19 3742.71,4875.35 3748.81,4863.01C3796.18,4767.15 3897.96,4700.79 4015.75,4700.79C4045.91,4700.79 4075.03,4705.14 4102.45,4713.23Z" style="fill:rgb(77,183,205);fill-opacity:0.25;"/>
            </g>
            <g transform="matrix(0.204269,0,0,0.204269,26613.9,802.861)">
                <path d="M3733.3,4914.52C3732.58,4912.5 3731.87,4910.46 3731.17,4908.43C3765.75,4788.74 3880.13,4700.79 4015.75,4700.79C4057.73,4700.79 4097.68,4709.22 4133.86,4724.41C4123.22,4724.41 4112.73,4725.06 4102.45,4726.32C3981.45,4741.15 3887.8,4840.47 3887.8,4960.63C3887.8,4962.82 3887.83,4965 3887.89,4967.18C3890.74,5067.74 3959.2,5152.69 4053.62,5183.99C4063.42,5187.23 4073.49,5189.9 4083.81,5191.95C4076.74,5192.33 4070.76,5192.21 4066.18,5191.48C4066.14,5191.48 4066.11,5191.47 4066.07,5191.47C3911.52,5166.66 3784.7,5058.44 3733.3,4914.52Z" style="fill:url(#_Linear1);"/>
            </g>
            <g transform="matrix(0.204269,0,0,0.204269,26613.5,803.719)">
                <path d="M4653.54,5316.74C4621.09,5281.88 4581.57,5252.3 4537.79,5233.19C4432.95,5187.41 4309.26,5190.01 4209.37,5247.68C4127.36,5284.69 4033.6,5289.56 3948.45,5260.31C3823.32,5232.26 3723.33,5119.2 3720.33,4989.44C3719.64,4959.53 3724.23,4929.92 3733.3,4901.43C3771.38,5008.05 3853.28,5097.49 3956.1,5144.87C3989.04,5160.05 4002.59,5163.11 4037.43,5172.75C4045.1,5174.88 4058.12,5178.18 4066.18,5178.39C4151.72,5180.66 4231.23,5143.43 4314.89,5132.16C4412.26,5119.04 4507.57,5152.94 4579.92,5218.21C4610.34,5245.65 4635.44,5280.09 4653.54,5316.74Z" style="fill:url(#_Linear2);"/>
            </g>
            <g transform="matrix(0.0849524,0,0,0.0849524,27323.2,1606.75)">
                <path d="M1497.03,2996.82C1565.4,2951.64 1628.43,2887.84 1686.12,2805.43C1771.55,2683.4 1813.18,2511.76 1811.04,2290.54L1808.63,2004.72C1805.99,1793.76 1812.56,1651.37 1828.34,1577.56C1844.11,1503.74 1885.45,1419.03 1952.37,1323.43C2085.5,1133.26 2251.06,1004.8 2449.04,938.066C2647.02,871.331 2816.37,887.215 2957.09,985.718C3046.4,1048.24 3121.59,1163.76 3182.65,1332.28L2866.43,1681.44L2805.71,1638.93C2829.06,1608.31 2845.01,1586.89 2853.55,1574.69C2921.18,1478.07 2951.23,1383.18 2943.69,1290.01C2936.15,1196.85 2892.22,1122.15 2811.9,1065.93C2729.01,1007.9 2632.07,998.002 2521.07,1036.22C2410.06,1074.44 2314.34,1151.01 2233.89,1265.93C2179.79,1343.22 2144.6,1423.9 2128.35,1507.99C2112.09,1592.08 2106.54,1726.85 2111.71,1912.31L2116.52,2147.51C2122.78,2407.99 2073.59,2612.98 1968.94,2762.48C1925.28,2824.85 1877.59,2880.2 1825.88,2928.52C1716.97,2956.67 1608.23,2988.29 1497.03,2996.82Z" style="fill:rgb(1,91,161);"/>
            </g>
            <g transform="matrix(2.99103,0,0,2.99103,25856.2,1002.02)">
                <text x="611.323px" y="265.211px" style="font-family:'Cora-Regular', 'Cora', sans-serif;font-size:34.519px;fill:rgb(55,144,204);">T<tspan x="626.788px 646.015px 655.715px 671.214px 689.026px 698.725px 706.941px 730.414px 751.091px 760.376px 781.502px 791.202px 811.706px 831.658px " y="265.211px 265.211px 265.211px 265.211px 265.211px 265.211px 265.211px 265.211px 265.211px 265.211px 265.211px 265.211px 265.211px 265.211px ">aisei Holdings</tspan></text>
                <g transform="matrix(26.468,0,0,26.468,771.217,291.679)">
                </g>
                <text x="687.022px" y="291.679px" style="font-family:'Cora-Regular', 'Cora', sans-serif;font-size:26.468px;fill:rgb(55,144,204);">C<tspan x="703.088px " y="291.679px ">o</tspan>,L<tspan x="738.264px 748.19px 764.388px " y="291.679px 291.679px 291.679px ">td.</tspan></text>
            </g>
        </g>
    </g>
    <defs>
        <linearGradient id="_Linear1" x1="0" y1="0" x2="1" y2="0" gradientUnits="userSpaceOnUse" gradientTransform="matrix(402.685,0,0,491.373,3731.17,4946.47)"><stop offset="0" style="stop-color:rgb(128,200,222);stop-opacity:1"/><stop offset="1" style="stop-color:rgb(55,144,204);stop-opacity:1"/></linearGradient>
        <linearGradient id="_Linear2" x1="0" y1="0" x2="1" y2="0" gradientUnits="userSpaceOnUse" gradientTransform="matrix(933.078,0,0,415.319,3720.47,5109.09)"><stop offset="0" style="stop-color:rgb(144,220,246);stop-opacity:1"/><stop offset="1" style="stop-color:rgb(11,104,193);stop-opacity:1"/></linearGradient>
    </defs>
</svg>
